<svg width="822" height="300" viewBox="0 0 822 300" xmlns="http://www.w3.org/2000/svg"><g fill="none" fill-rule="evenodd"><text font-family="ArialRoundedMTBold, Arial Rounded MT Bold" font-size="80" fill="#333"><tspan x="312" y="194">ROCKETACT</tspan></text><g fill="#2275FF"><path d="M153.578 32.155l78.528 157.056a4 4 0 0 1-3.578 5.789H71.472a4 4 0 0 1-3.578-5.789l78.528-157.056a4 4 0 0 1 7.156 0zm0 58a4 4 0 0 0-7.156 0l-36.528 73.056a4 4 0 0 0 3.578 5.789h73.056a4 4 0 0 0 3.578-5.789l-36.528-73.056zM152.828 272.172l50.344-50.344a4 4 0 0 0-2.829-6.828H99.657a4 4 0 0 0-2.829 6.828l50.344 50.344a4 4 0 0 0 5.656 0z"/></g></g></svg>